<?xml version="1.0" encoding="UTF-8"?>
<!-- Generated by Pixelmator Pro 3.3.2 -->
<svg width="36" height="36" viewBox="0 0 36 36" xmlns="http://www.w3.org/2000/svg" xmlns:xlink="http://www.w3.org/1999/xlink">
    <path id="riquadro" fill="#ffffff" fill-rule="evenodd" stroke="none" d="M 11.310547 34.042969 C 8.321538 34.042969 5.791452 33.760201 3.998047 31.966797 C 2.204642 30.173393 1.939453 27.678467 1.939453 24.671875 L 1.939453 11.378906 C 1.939453 8.442648 2.204642 5.928171 3.998047 4.134766 C 5.791452 2.341362 8.321547 2.060547 11.275391 2.060547 L 24.550781 2.060547 C 27.557369 2.060547 30.089407 2.341362 31.882813 4.134766 C 33.676216 5.910589 33.939453 8.425051 33.939453 11.431641 L 33.939453 24.671875 C 33.939453 27.678467 33.676216 30.173393 31.882813 31.966797 C 30.089407 33.760201 27.557369 34.042969 24.550781 34.042969 L 11.310547 34.042969 Z M 17.962891 31.841797 C 25.584412 31.841797 31.763672 25.66449 31.763672 18.042969 C 31.763672 10.421446 25.584412 4.242188 17.962891 4.242188 C 10.341369 4.242188 4.162109 10.421446 4.162109 18.042969 C 4.162109 25.66449 10.341369 31.841797 17.962891 31.841797 Z"/>
    <path id="croce" fill="#ffffff" fill-rule="evenodd" stroke="none" d="M 13.060964 24.319036 C 12.707791 24.319036 12.354605 24.184319 12.085143 23.914856 C 11.546221 23.375935 11.546221 22.50214 12.085143 21.963215 L 16.030729 18.01763 L 12.127565 14.114349 C 11.588642 13.575426 11.588642 12.701632 12.127565 12.162708 C 12.666488 11.623787 13.540283 11.623787 14.079206 12.162708 L 17.98237 16.06599 L 21.843229 12.20513 C 22.382151 11.666208 23.255945 11.666208 23.79487 12.20513 C 24.333792 12.744055 24.333792 13.617849 23.79487 14.156771 L 19.93401 18.01763 L 23.837292 21.920795 C 24.376213 22.459717 24.376213 23.333511 23.837292 23.872435 C 23.298368 24.411358 22.424574 24.411358 21.885651 23.872435 L 17.98237 19.969271 L 14.036784 23.914856 C 13.767322 24.184319 13.414136 24.319036 13.060964 24.319036 Z"/>
</svg>
