<?xml version="1.0" encoding="UTF-8"?>
<!-- Generated by Pixelmator Pro 3.3.2 -->
<svg width="18" height="18" viewBox="0 0 18 18" xmlns="http://www.w3.org/2000/svg" xmlns:xlink="http://www.w3.org/1999/xlink">
    <path id="riquadro" fill="#ffffff" fill-rule="evenodd" stroke="none" d="M 5.65625 17.021484 C 4.161746 17.021484 2.894749 16.881077 1.998047 15.984375 C 1.101344 15.087673 0.970703 13.839233 0.970703 12.335938 L 0.970703 5.689453 C 0.970703 4.221324 1.101344 2.963109 1.998047 2.066406 C 2.894749 1.169704 4.16175 1.029297 5.638672 1.029297 L 12.275391 1.029297 C 13.778685 1.029297 15.044703 1.169704 15.941406 2.066406 C 16.838108 2.954318 16.970703 4.211549 16.970703 5.714844 L 16.970703 12.335938 C 16.970703 13.839233 16.838108 15.087673 15.941406 15.984375 C 15.044703 16.881077 13.778685 17.021484 12.275391 17.021484 L 5.65625 17.021484 Z M 8.982422 15.921875 C 12.793182 15.921875 15.880859 12.832245 15.880859 9.021484 C 15.880859 5.210723 12.793182 2.121094 8.982422 2.121094 C 5.171661 2.121094 2.082031 5.210723 2.082031 9.021484 C 2.082031 12.832245 5.171661 15.921875 8.982422 15.921875 Z"/>
    <path id="croce" fill="#ffffff" fill-rule="evenodd" stroke="none" d="M 6.530482 12.159518 C 6.353896 12.159518 6.177302 12.092159 6.042572 11.957428 C 5.77311 11.687967 5.77311 11.25107 6.042572 10.981607 L 8.015365 9.008815 L 6.063783 7.057175 C 5.794321 6.787713 5.794321 6.350816 6.063783 6.081354 C 6.333244 5.811893 6.770142 5.811893 7.039603 6.081354 L 8.991185 8.032995 L 10.921615 6.102565 C 11.191075 5.833104 11.627973 5.833104 11.897435 6.102565 C 12.166896 6.372027 12.166896 6.808925 11.897435 7.078385 L 9.967005 9.008815 L 11.918646 10.960398 C 12.188107 11.229858 12.188107 11.666756 11.918646 11.936217 C 11.649184 12.205679 11.212287 12.205679 10.942825 11.936217 L 8.991185 9.984635 L 7.018392 11.957428 C 6.883661 12.092159 6.707068 12.159518 6.530482 12.159518 Z"/>
</svg>
