<?xml version="1.0" encoding="UTF-8"?>
<!-- Generated by Pixelmator Pro 3.3.2 -->
<svg width="54" height="54" viewBox="0 0 54 54" xmlns="http://www.w3.org/2000/svg" xmlns:xlink="http://www.w3.org/1999/xlink">
    <path id="riquadro" fill="#ffffff" fill-rule="evenodd" stroke="none" d="M 16.966797 51.064453 C 12.483284 51.064453 8.686201 50.641281 5.996094 47.951172 C 3.305986 45.261063 2.910156 41.515747 2.910156 37.005859 L 2.910156 17.068359 C 2.910156 12.663971 3.305986 8.891281 5.996094 6.201172 C 8.686201 3.51107 12.483297 3.089844 16.914063 3.089844 L 36.826172 3.089844 C 41.336056 3.089844 45.134109 3.51107 47.824219 6.201172 C 50.514324 8.86491 50.910156 12.6366 50.910156 17.146484 L 50.910156 37.005859 C 50.910156 41.515747 50.514324 45.261063 47.824219 47.951172 C 45.134109 50.641281 41.336056 51.064453 36.826172 51.064453 L 16.966797 51.064453 Z M 26.945313 47.763672 C 38.377594 47.763672 47.644531 38.494781 47.644531 27.0625 C 47.644531 15.630215 38.377594 6.363281 26.945313 6.363281 C 15.513029 6.363281 6.244141 15.630215 6.244141 27.0625 C 6.244141 38.494781 15.513029 47.763672 26.945313 47.763672 Z"/>
    <path id="croce" fill="#ffffff" fill-rule="evenodd" stroke="none" d="M 19.591446 36.478554 C 19.061686 36.478554 18.531906 36.276478 18.127714 35.872284 C 17.31933 35.063904 17.31933 33.753212 18.127714 32.944824 L 24.046093 27.026445 L 18.191347 21.171524 C 17.382963 20.36314 17.382963 19.052444 18.191347 18.244064 C 18.999731 17.43568 20.310425 17.43568 21.118809 18.244064 L 26.973555 24.098984 L 32.764843 18.307697 C 33.573227 17.499313 34.883919 17.499313 35.692303 18.307697 C 36.500687 19.116081 36.500687 20.426773 35.692303 21.235157 L 29.901016 27.026445 L 35.755936 32.881191 C 36.56432 33.689575 36.56432 35.000267 35.755936 35.808655 C 34.947556 36.617035 33.63686 36.617035 32.828476 35.808655 L 26.973555 29.953907 L 21.055176 35.872284 C 20.650982 36.276478 20.121204 36.478554 19.591446 36.478554 Z"/>
</svg>
